<svg width="131" height="70" viewBox="0 0 131 70" fill="none" xmlns="http://www.w3.org/2000/svg">
<path d="M0 0H64V50C64 61.0457 55.0457 70 44 70H20C8.95431 70 0 61.0457 0 50V0Z" fill="#5A79E6"/>
<path d="M16.068 49V33.6H18.422L25.154 44.842H23.922L30.544 33.6H32.898L32.92 49H30.214L30.192 37.846H30.764L25.132 47.24H23.856L18.136 37.846H18.796V49H16.068ZM42.3377 49.154C41.0324 49.154 39.8884 48.8973 38.9057 48.384C37.9377 47.856 37.1824 47.1373 36.6397 46.228C36.1117 45.3187 35.8477 44.2847 35.8477 43.126C35.8477 41.9527 36.1044 40.9187 36.6177 40.024C37.1457 39.1147 37.8644 38.4033 38.7737 37.89C39.6977 37.3767 40.7464 37.12 41.9197 37.12C43.0637 37.12 44.0831 37.3693 44.9777 37.868C45.8724 38.3667 46.5764 39.0707 47.0897 39.98C47.6031 40.8893 47.8597 41.96 47.8597 43.192C47.8597 43.3093 47.8524 43.4413 47.8377 43.588C47.8377 43.7347 47.8304 43.874 47.8157 44.006H38.0257V42.18H46.3637L45.2857 42.752C45.3004 42.0773 45.1611 41.4833 44.8677 40.97C44.5744 40.4567 44.1711 40.0533 43.6577 39.76C43.1591 39.4667 42.5797 39.32 41.9197 39.32C41.2451 39.32 40.6511 39.4667 40.1377 39.76C39.6391 40.0533 39.2431 40.464 38.9497 40.992C38.6711 41.5053 38.5317 42.114 38.5317 42.818V43.258C38.5317 43.962 38.6931 44.5853 39.0157 45.128C39.3384 45.6707 39.7931 46.0887 40.3797 46.382C40.9664 46.6753 41.6411 46.822 42.4037 46.822C43.0637 46.822 43.6577 46.7193 44.1857 46.514C44.7137 46.3087 45.1831 45.986 45.5937 45.546L47.0677 47.24C46.5397 47.856 45.8724 48.3327 45.0657 48.67C44.2737 48.9927 43.3644 49.154 42.3377 49.154ZM55.8253 53.422C54.7399 53.422 53.6766 53.2753 52.6353 52.982C51.6086 52.7033 50.7653 52.2927 50.1053 51.75L51.3373 49.682C51.8506 50.1073 52.4959 50.4447 53.2733 50.694C54.0653 50.958 54.8646 51.09 55.6713 51.09C56.9619 51.09 57.9079 50.7893 58.5093 50.188C59.1106 49.6013 59.4113 48.714 59.4113 47.526V45.436L59.6313 42.774L59.5433 40.112V37.252H62.1613V47.218C62.1613 49.3447 61.6186 50.9067 60.5333 51.904C59.4479 52.916 57.8786 53.422 55.8253 53.422ZM55.4733 48.472C54.3586 48.472 53.3466 48.2373 52.4373 47.768C51.5426 47.284 50.8313 46.6167 50.3033 45.766C49.7899 44.9153 49.5333 43.918 49.5333 42.774C49.5333 41.6447 49.7899 40.6547 50.3033 39.804C50.8313 38.9533 51.5426 38.2933 52.4373 37.824C53.3466 37.3547 54.3586 37.12 55.4733 37.12C56.4706 37.12 57.3653 37.318 58.1573 37.714C58.9493 38.11 59.5799 38.726 60.0493 39.562C60.5333 40.398 60.7753 41.4687 60.7753 42.774C60.7753 44.0793 60.5333 45.1573 60.0493 46.008C59.5799 46.844 58.9493 47.4673 58.1573 47.878C57.3653 48.274 56.4706 48.472 55.4733 48.472ZM55.8913 46.14C56.5806 46.14 57.1966 46.0007 57.7393 45.722C58.2819 45.4287 58.6999 45.0327 58.9933 44.534C59.3013 44.0207 59.4553 43.434 59.4553 42.774C59.4553 42.114 59.3013 41.5347 58.9933 41.036C58.6999 40.5227 58.2819 40.134 57.7393 39.87C57.1966 39.5913 56.5806 39.452 55.8913 39.452C55.2019 39.452 54.5786 39.5913 54.0213 39.87C53.4786 40.134 53.0533 40.5227 52.7453 41.036C52.4519 41.5347 52.3053 42.114 52.3053 42.774C52.3053 43.434 52.4519 44.0207 52.7453 44.534C53.0533 45.0327 53.4786 45.4287 54.0213 45.722C54.5786 46.0007 55.2019 46.14 55.8913 46.14Z" fill="white"/>
<path d="M73.0147 49V46.624L72.8607 46.118V41.96C72.8607 41.1533 72.6187 40.53 72.1347 40.09C71.6507 39.6353 70.9173 39.408 69.9347 39.408C69.2747 39.408 68.622 39.5107 67.9767 39.716C67.346 39.9213 66.8107 40.2073 66.3707 40.574L65.2927 38.572C65.9233 38.088 66.6713 37.7287 67.5367 37.494C68.4167 37.2447 69.326 37.12 70.2647 37.12C71.966 37.12 73.2787 37.5307 74.2027 38.352C75.1413 39.1587 75.6107 40.4127 75.6107 42.114V49H73.0147ZM69.3187 49.154C68.4387 49.154 67.6687 49.0073 67.0087 48.714C66.3487 48.406 65.8353 47.988 65.4687 47.46C65.1167 46.9173 64.9407 46.3087 64.9407 45.634C64.9407 44.974 65.0947 44.38 65.4027 43.852C65.7253 43.324 66.246 42.906 66.9647 42.598C67.6833 42.29 68.6367 42.136 69.8247 42.136H73.2347V43.962H70.0227C69.084 43.962 68.4533 44.116 68.1307 44.424C67.808 44.7173 67.6467 45.084 67.6467 45.524C67.6467 46.0227 67.8447 46.4187 68.2407 46.712C68.6367 47.0053 69.1867 47.152 69.8907 47.152C70.5653 47.152 71.1667 46.998 71.6947 46.69C72.2373 46.382 72.626 45.9273 72.8607 45.326L73.3227 46.976C73.0587 47.6653 72.582 48.2007 71.8927 48.582C71.218 48.9633 70.36 49.154 69.3187 49.154ZM81.9559 45.37L81.8019 41.982L89.8759 33.6H93.0879L86.3779 40.728L84.7939 42.466L81.9559 45.37ZM79.4039 49V33.6H82.2639V49H79.4039ZM90.1399 49L84.2439 41.982L86.1359 39.892L93.4839 49H90.1399ZM100.174 49.154C98.8683 49.154 97.7243 48.8973 96.7417 48.384C95.7737 47.856 95.0183 47.1373 94.4757 46.228C93.9477 45.3187 93.6837 44.2847 93.6837 43.126C93.6837 41.9527 93.9403 40.9187 94.4537 40.024C94.9817 39.1147 95.7003 38.4033 96.6097 37.89C97.5337 37.3767 98.5823 37.12 99.7557 37.12C100.9 37.12 101.919 37.3693 102.814 37.868C103.708 38.3667 104.412 39.0707 104.926 39.98C105.439 40.8893 105.696 41.96 105.696 43.192C105.696 43.3093 105.688 43.4413 105.674 43.588C105.674 43.7347 105.666 43.874 105.652 44.006H95.8617V42.18H104.2L103.122 42.752C103.136 42.0773 102.997 41.4833 102.704 40.97C102.41 40.4567 102.007 40.0533 101.494 39.76C100.995 39.4667 100.416 39.32 99.7557 39.32C99.081 39.32 98.487 39.4667 97.9737 39.76C97.475 40.0533 97.079 40.464 96.7857 40.992C96.507 41.5053 96.3677 42.114 96.3677 42.818V43.258C96.3677 43.962 96.529 44.5853 96.8517 45.128C97.1743 45.6707 97.629 46.0887 98.2157 46.382C98.8023 46.6753 99.477 46.822 100.24 46.822C100.9 46.822 101.494 46.7193 102.022 46.514C102.55 46.3087 103.019 45.986 103.43 45.546L104.904 47.24C104.376 47.856 103.708 48.3327 102.902 48.67C102.11 48.9927 101.2 49.154 100.174 49.154ZM109.09 53.422C108.518 53.422 107.946 53.3267 107.374 53.136C106.802 52.9453 106.326 52.6813 105.944 52.344L107.044 50.32C107.323 50.5693 107.638 50.7673 107.99 50.914C108.342 51.0607 108.702 51.134 109.068 51.134C109.567 51.134 109.97 51.0093 110.278 50.76C110.586 50.5107 110.872 50.0927 111.136 49.506L111.818 47.966L112.038 47.636L116.482 37.252H119.122L113.622 49.946C113.256 50.826 112.845 51.5227 112.39 52.036C111.95 52.5493 111.452 52.9087 110.894 53.114C110.352 53.3193 109.75 53.422 109.09 53.422ZM111.51 49.418L106.208 37.252H109.068L113.38 47.394L111.51 49.418ZM124.321 49.154C123.338 49.154 122.392 49.0293 121.483 48.78C120.588 48.516 119.877 48.2007 119.349 47.834L120.405 45.744C120.933 46.0813 121.563 46.36 122.297 46.58C123.03 46.8 123.763 46.91 124.497 46.91C125.362 46.91 125.985 46.7927 126.367 46.558C126.763 46.3233 126.961 46.008 126.961 45.612C126.961 45.2893 126.829 45.0473 126.565 44.886C126.301 44.71 125.956 44.578 125.531 44.49C125.105 44.402 124.629 44.3213 124.101 44.248C123.587 44.1747 123.067 44.0793 122.539 43.962C122.025 43.83 121.556 43.6467 121.131 43.412C120.705 43.1627 120.361 42.8327 120.097 42.422C119.833 42.0113 119.701 41.4687 119.701 40.794C119.701 40.046 119.913 39.4007 120.339 38.858C120.764 38.3007 121.358 37.8753 122.121 37.582C122.898 37.274 123.815 37.12 124.871 37.12C125.663 37.12 126.462 37.208 127.269 37.384C128.075 37.56 128.743 37.8093 129.271 38.132L128.215 40.222C127.657 39.8847 127.093 39.6573 126.521 39.54C125.963 39.408 125.406 39.342 124.849 39.342C124.013 39.342 123.389 39.4667 122.979 39.716C122.583 39.9653 122.385 40.2807 122.385 40.662C122.385 41.014 122.517 41.278 122.781 41.454C123.045 41.63 123.389 41.7693 123.815 41.872C124.24 41.9747 124.709 42.0627 125.223 42.136C125.751 42.1947 126.271 42.29 126.785 42.422C127.298 42.554 127.767 42.7373 128.193 42.972C128.633 43.192 128.985 43.5073 129.249 43.918C129.513 44.3287 129.645 44.864 129.645 45.524C129.645 46.2573 129.425 46.8953 128.985 47.438C128.559 47.9807 127.951 48.406 127.159 48.714C126.367 49.0073 125.421 49.154 124.321 49.154Z" fill="#2A2A2A"/>
</svg>
